<svg width="40" height="40" viewBox="0 0 40 40" fill="none" xmlns="http://www.w3.org/2000/svg">
<path d="M10.4762 22.8574H12.3809V20.9526H10.4762V22.8574ZM13.3333 24.7621H9.52379C8.99681 24.7621 8.57141 24.3367 8.57141 23.8098V20.0002C8.57141 19.4732 8.99681 19.0479 9.52379 19.0479H13.3333C13.8603 19.0479 14.2857 19.4732 14.2857 20.0002V23.8098C14.2857 24.3367 13.8603 24.7621 13.3333 24.7621Z" fill="white" fill-opacity="0.12"/>
<path d="M13.3333 9.52386H9.52379C8.99681 9.52386 8.57141 9.09846 8.57141 8.57148V4.76195C8.57141 4.23497 8.99681 3.80957 9.52379 3.80957H13.3333C13.8603 3.80957 14.2857 4.23497 14.2857 4.76195V8.57148C14.2857 9.09846 13.8603 9.52386 13.3333 9.52386ZM10.4762 7.61909H12.3809V5.71433H10.4762V7.61909Z" fill="white" fill-opacity="0.12"/>
<path d="M21.5873 9.52386H17.7778C17.2508 9.52386 16.8254 9.09846 16.8254 8.57148V4.76195C16.8254 4.23497 17.2508 3.80957 17.7778 3.80957H21.5873C22.1143 3.80957 22.5397 4.23497 22.5397 4.76195V8.57148C22.5397 9.09846 22.1143 9.52386 21.5873 9.52386ZM18.7301 7.61909H20.6349V5.71433H18.7301V7.61909Z" fill="white" fill-opacity="0.12"/>
<path d="M13.3333 17.143H9.52379C8.99681 17.143 8.57141 16.7176 8.57141 16.1906V12.3811C8.57141 11.8541 8.99681 11.4287 9.52379 11.4287H13.3333C13.8603 11.4287 14.2857 11.8541 14.2857 12.3811V16.1906C14.2857 16.7176 13.8603 17.143 13.3333 17.143ZM10.4762 15.2382H12.3809V13.3335H10.4762V15.2382Z" fill="white" fill-opacity="0.12"/>
<path d="M33.3334 6.89843C33.1048 6.89843 32.873 6.81589 32.6889 6.64764C32.3016 6.29208 32.2762 5.68891 32.6318 5.30161L36.1238 1.49208C36.4794 1.10478 37.0826 1.07939 37.4699 1.43494C37.8572 1.7905 37.8826 2.39367 37.527 2.78097L34.035 6.5905C33.8477 6.79367 33.5905 6.89843 33.3334 6.89843Z" fill="white" fill-opacity="0.12"/>
<path d="M35.5556 31.9779C35.2826 31.9779 35.0127 31.8604 34.8223 31.635L33.235 29.7303C32.8984 29.3271 32.9524 28.7271 33.3556 28.3874C33.7619 28.0509 34.3588 28.1049 34.6984 28.5081L36.2858 30.4128C36.6223 30.816 36.5683 31.416 36.1651 31.7557C35.9873 31.9049 35.7715 31.9779 35.5556 31.9779Z" fill="white" fill-opacity="0.12"/>
<path d="M39.0476 38.0952H26.3492V29.054L29.4349 31.6254C29.8476 31.9714 30.4762 31.6762 30.4762 31.1365V26.3841C30.4762 25.9905 30.8317 25.6921 31.219 25.7587L37.1873 26.8032C37.7492 26.9016 38.146 26.2667 37.8095 25.8032L34.7556 21.6127C34.5397 21.3175 34.619 20.8984 34.927 20.7016L38.6476 18.3333C39.054 18.073 39.0349 17.473 38.6095 17.2413L35.0413 15.2952C34.6921 15.1048 34.6032 14.6444 34.854 14.3365L38.9714 9.28571C39.3619 8.80635 38.9079 8.11111 38.3143 8.27302L31.0476 10.2349C30.727 10.3206 30.3905 10.146 30.2825 9.82857L29.3302 7.07302C29.2 6.69841 28.7619 6.53333 28.419 6.72698L26.3492 7.90159V4.12698C26.3492 1.85079 24.4984 0 22.2222 0H8.88889C6.6127 0 4.7619 1.85079 4.7619 4.12698V26.6667H3.80952C3.28254 26.6667 2.85714 27.0921 2.85714 27.619C2.85714 28.146 3.28254 28.5714 3.80952 28.5714H13.3333C13.8603 28.5714 14.2857 28.146 14.2857 27.619C14.2857 27.0921 13.8603 26.6667 13.3333 26.6667H6.66667V4.12698C6.66667 2.90159 7.66349 1.90476 8.88889 1.90476H22.2222C23.4476 1.90476 24.4444 2.90159 24.4444 4.12698V8.97778V14.0413L26.781 12.0952C26.9873 11.9238 27.3016 12.0698 27.3016 12.3397V14.0921C27.3016 14.3048 27.5079 14.4571 27.7111 14.3968L29.9206 13.7333C30.1619 13.6603 30.3873 13.8825 30.3175 14.1238L29.7111 16.2571C29.6698 16.4063 29.7397 16.5619 29.8762 16.6286L32.1587 17.7429C32.3873 17.854 32.3968 18.1778 32.1746 18.3048L29.946 19.5714C29.819 19.6444 29.7587 19.7905 29.7968 19.9302L30.327 21.9048C30.3905 22.146 30.1683 22.3619 29.9302 22.2921L27.7111 21.6254C27.5079 21.5619 27.3016 21.7143 27.3016 21.927V23.6794C27.3016 23.9492 26.9873 24.0952 26.781 23.9238L24.4444 21.9778V38.0952H14.2857V31.4286C14.2857 30.9016 13.8603 30.4762 13.3333 30.4762H3.80952C3.28254 30.4762 2.85714 30.9016 2.85714 31.4286V38.0952H0.952381C0.425397 38.0952 0 38.5206 0 39.0476C0 39.5746 0.425397 40 0.952381 40H39.0476C39.5746 40 40 39.5746 40 39.0476C40 38.5206 39.5746 38.0952 39.0476 38.0952ZM7.61905 38.0952H4.7619V32.381H7.61905V38.0952ZM12.381 38.0952H9.52381V32.381H12.381V38.0952Z" fill="white" fill-opacity="0.12"/>
<path d="M21.5873 17.143H17.7778C17.2508 17.143 16.8254 16.7176 16.8254 16.1906V12.3811C16.8254 11.8541 17.2508 11.4287 17.7778 11.4287H21.5873C22.1143 11.4287 22.5397 11.8541 22.5397 12.3811V16.1906C22.5397 16.7176 22.1143 17.143 21.5873 17.143ZM18.7301 15.2382H20.6349V13.3335H18.7301V15.2382Z" fill="white" fill-opacity="0.12"/>
<path d="M21.5873 32.3808H17.7778C17.2508 32.3808 16.8254 31.9554 16.8254 31.4284V27.6189C16.8254 27.0919 17.2508 26.6665 17.7778 26.6665H21.5873C22.1143 26.6665 22.5397 27.0919 22.5397 27.6189V31.4284C22.5397 31.9554 22.1143 32.3808 21.5873 32.3808ZM18.7301 30.476H20.6349V28.5713H18.7301V30.476Z" fill="white" fill-opacity="0.12"/>
<path d="M21.5873 24.7621H17.7778C17.2508 24.7621 16.8254 24.3367 16.8254 23.8098V20.0002C16.8254 19.4732 17.2508 19.0479 17.7778 19.0479H21.5873C22.1143 19.0479 22.5397 19.4732 22.5397 20.0002V23.8098C22.5397 24.3367 22.1143 24.7621 21.5873 24.7621ZM18.7301 22.8574H20.6349V20.9526H18.7301V22.8574Z" fill="white" fill-opacity="0.12"/>
</svg>
