<svg width="24" height="24" viewBox="0 0 24 24" fill="none" xmlns="http://www.w3.org/2000/svg">
<g clip-path="url(#clip0_179_4774)">
<path d="M23.707 0.293031C23.5195 0.10556 23.2652 0.000244141 23 0.000244141C22.7349 0.000244141 22.4806 0.10556 22.293 0.293031L12 10.586L1.70703 0.293031C1.5195 0.10556 1.26519 0.000244141 1.00003 0.000244141C0.734866 0.000244141 0.480558 0.10556 0.293031 0.293031V0.293031C0.10556 0.480558 0.000244141 0.734866 0.000244141 1.00003C0.000244141 1.26519 0.10556 1.5195 0.293031 1.70703L10.586 12L0.293031 22.293C0.10556 22.4806 0.000244141 22.7349 0.000244141 23C0.000244141 23.2652 0.10556 23.5195 0.293031 23.707V23.707C0.480558 23.8945 0.734866 23.9998 1.00003 23.9998C1.26519 23.9998 1.5195 23.8945 1.70703 23.707L12 13.414L22.293 23.707C22.4806 23.8945 22.7349 23.9998 23 23.9998C23.2652 23.9998 23.5195 23.8945 23.707 23.707C23.8945 23.5195 23.9998 23.2652 23.9998 23C23.9998 22.7349 23.8945 22.4806 23.707 22.293L13.414 12L23.707 1.70703C23.8945 1.5195 23.9998 1.26519 23.9998 1.00003C23.9998 0.734866 23.8945 0.480558 23.707 0.293031V0.293031Z" fill="#003049"/>
</g>
<defs>
<clipPath id="clip0_179_4774">
<rect width="24" height="24" fill="white"/>
</clipPath>
</defs>
</svg>
