<svg width="42" height="43" viewBox="0 0 42 43" fill="none" xmlns="http://www.w3.org/2000/svg">
<path d="M33.3443 24.333C33.2003 24.333 33.053 24.2975 32.9154 24.2193C32.4416 23.9563 32.2495 23.3166 32.4864 22.7906L35.0474 17.1045C35.2843 16.5785 35.8605 16.3653 36.3375 16.6283C36.8113 16.8912 37.0034 17.5309 36.7665 18.0569L34.2055 23.7431C34.0358 24.1162 33.6965 24.333 33.3443 24.333Z" fill="white" fill-opacity="0.12"/>
<path d="M38.1459 32.507C37.8706 32.507 37.5985 32.3755 37.4064 32.1232C37.0671 31.6719 37.1215 31.0002 37.5281 30.6199L39.4488 28.843C39.8586 28.4663 40.4636 28.5267 40.803 28.9781C41.1423 29.4294 41.0879 30.1011 40.6813 30.4813L38.7606 32.2583C38.5813 32.4253 38.3636 32.507 38.1459 32.507Z" fill="white" fill-opacity="0.12"/>
<path d="M10.6662 9.24C8.37091 9.24 6.50458 7.16811 6.50458 4.62C6.50458 2.07189 8.37091 0 10.6662 0C12.9615 0 14.8279 2.07189 14.8279 4.62C14.8279 7.16811 12.9583 9.24 10.6662 9.24ZM10.6662 2.13231C9.43053 2.13231 8.42533 3.24822 8.42533 4.62C8.42533 5.99179 9.43053 7.10769 10.6662 7.10769C11.9019 7.10769 12.9071 5.99179 12.9071 4.62C12.9071 3.24822 11.8987 2.13231 10.6662 2.13231Z" fill="white" fill-opacity="0.12"/>
<path d="M15.7245 42.1024C14.4664 42.1024 13.3651 41.2068 12.981 39.8777C11.4604 34.5931 10.6216 30.1686 10.532 29.6781C10.3655 28.7719 10.5576 27.8301 11.0634 27.0945C11.2107 26.8777 12.4656 25.0972 14.5368 23.2848C14.0566 22.1013 13.3491 20.463 12.504 18.8602C12.4848 18.9064 12.4624 18.9526 12.4432 18.9988L11.5148 21.1916C11.041 22.3075 10.0166 23.0289 8.90577 23.0289C8.50241 23.0289 8.10865 22.9365 7.73731 22.7517L2.404 20.1218C1.68692 19.7665 1.1395 19.1197 0.870599 18.3023C0.598491 17.4849 0.636907 16.6 0.979442 15.811C1.6453 14.2687 3.36758 13.597 4.82096 14.3113L7.51962 15.644C8.79372 13.0213 10.8425 10.9885 13.3523 9.87255C15.7501 8.80639 18.4327 8.6749 20.9073 9.49939C23.4971 10.3843 25.7828 12.2181 27.345 14.6667L29.0417 17.325C29.4867 18.0251 29.6595 18.8709 29.5283 19.7131C29.397 20.5554 28.9777 21.2911 28.3502 21.7815C27.774 22.2328 27.0729 22.4318 26.3751 22.3466C25.8468 22.2826 25.4659 21.7566 25.5235 21.1702C25.5811 20.5838 26.0581 20.1645 26.5831 20.2249C26.8168 20.2533 27.0505 20.1858 27.2426 20.0365C27.4507 19.8731 27.5915 19.6279 27.6331 19.3471C27.678 19.0663 27.6203 18.7856 27.4731 18.551L25.7796 15.8928C24.4575 13.8315 22.5303 12.2821 20.3503 11.5393C18.2951 10.857 16.0638 10.9671 14.0662 11.852C11.8157 12.8507 10.0038 14.7449 8.97299 17.1793L8.84494 17.4849C8.62085 18.0109 8.06383 18.2419 7.58685 18.0037L4.04625 16.2553C3.53725 16.0029 2.93861 16.2162 2.71773 16.7315C2.60248 16.9945 2.58968 17.2894 2.68251 17.5631C2.77215 17.8367 2.95462 18.0535 3.19471 18.1708L8.52802 20.8006C8.9954 21.0316 9.57163 20.7864 9.78611 20.2782L10.7145 18.0855C10.9994 17.4138 11.3707 16.7777 11.8157 16.1984C12.011 15.9425 12.3023 15.8039 12.6064 15.8252C12.9073 15.8466 13.1827 16.0243 13.3491 16.305C14.7577 18.6825 15.9005 21.3692 16.6112 23.203C16.7873 23.6615 16.656 24.191 16.2943 24.486C14.0342 26.3197 12.6512 28.3064 12.5968 28.3916C12.4304 28.6369 12.3631 28.9496 12.4208 29.2517C12.456 29.44 13.3011 33.9605 14.8185 39.2309C14.9465 39.6751 15.3147 39.9736 15.7341 39.9736C15.8717 39.9736 16.0094 39.9381 16.1406 39.8741C16.5696 39.6538 16.7809 39.0496 16.624 38.4952C15.5708 34.8277 14.8473 31.5084 14.508 29.8558C14.4375 29.5147 14.524 29.1593 14.7353 28.8998C15.5484 27.9119 16.8801 26.4939 18.596 25.3496C19.0506 25.0475 19.6396 25.2109 19.9149 25.7156C20.1806 26.2167 20.0334 26.8706 19.5788 27.1762C18.2406 28.0682 17.1554 29.1735 16.4896 29.934C16.8577 31.6754 17.5236 34.6215 18.4487 37.8449C18.9033 39.4334 18.2535 41.1393 16.9377 41.8074C16.5472 42.0029 16.1406 42.1024 15.7245 42.1024Z" fill="white" fill-opacity="0.12"/>
<path d="M40.4991 35.3503H35.7068C35.3099 35.3503 35.0089 34.9523 35.0762 34.5187L36.1294 27.8375C36.2286 27.2084 35.5884 26.7642 35.121 27.1409L30.8953 30.5597C30.5976 30.8014 30.175 30.7125 29.9766 30.3678L27.5884 26.2027C27.3259 25.7478 26.7209 25.7691 26.4872 26.2453L24.8705 29.5362C24.7265 28.6477 24.5632 26.487 24.5312 24.3796C24.528 24.1877 24.5088 23.9958 24.4768 23.8074C24.4416 23.6119 23.5868 18.9351 21.3716 14.4253C21.0867 13.846 20.392 13.6754 19.9086 14.1196C19.55 14.4501 19.4828 15.033 19.7069 15.4879C21.7653 19.6992 22.5592 24.0384 22.5912 24.2232C22.6009 24.2836 22.6073 24.3476 22.6105 24.4116C22.6393 26.2809 22.8089 29.6215 23.1419 30.6237C23.8718 32.8093 27.041 36.7505 28.2383 38.1294C28.5584 38.499 28.6352 39.0783 28.3727 39.5012C28.0174 40.0734 27.3003 40.1196 26.8873 39.6434C25.2163 37.7243 22.1655 33.8222 21.3428 31.3664C21.2467 31.0821 21.1571 30.6734 21.077 30.1546C20.9874 29.586 20.5328 29.1453 20.0174 29.2093C19.4636 29.2768 19.0827 29.8454 19.1755 30.446C19.2811 31.1354 19.4028 31.6827 19.5436 32.1092C20.6673 35.4711 24.7073 40.2084 25.5076 41.1253C26.071 41.7721 26.8233 42.0991 27.5788 42.0991C27.6204 42.0991 34.5095 42.0991 36.3503 42.0991C36.6352 42.0991 36.9041 41.9569 37.0866 41.7152L40.9921 36.5124C41.3378 36.054 41.0433 35.3503 40.4991 35.3503Z" fill="white" fill-opacity="0.12"/>
</svg>
