<svg width="21" height="20" viewBox="0 0 21 20" fill="none" xmlns="http://www.w3.org/2000/svg">
<g clip-path="url(#clip0_75_5874)">
<path fill-rule="evenodd" clip-rule="evenodd" d="M10.7202 0C5.17993 0 0.701172 4.50694 0.701172 10.0826C0.701172 14.5396 3.57087 18.3123 7.5519 19.6476C8.04963 19.748 8.23195 19.4306 8.23195 19.1637C8.23195 18.93 8.21554 18.1288 8.21554 17.2939C5.42849 17.895 4.84811 16.092 4.84811 16.092C4.40022 14.9235 3.73657 14.6232 3.73657 14.6232C2.82437 14.0055 3.80302 14.0055 3.80302 14.0055C4.81489 14.0723 5.34585 15.0405 5.34585 15.0405C6.24143 16.5761 7.68459 16.1422 8.26517 15.8751C8.34802 15.224 8.61361 14.7733 8.89559 14.523C6.67272 14.2893 4.33398 13.4213 4.33398 9.54836C4.33398 8.44662 4.73183 7.54523 5.36225 6.8442C5.26279 6.59386 4.91435 5.5587 5.46192 4.17322C5.46192 4.17322 6.30788 3.90608 8.21534 5.20818C9.03199 4.98747 9.87419 4.8752 10.7202 4.87426C11.5662 4.87426 12.4285 4.99123 13.2248 5.20818C15.1325 3.90608 15.9785 4.17322 15.9785 4.17322C16.526 5.5587 16.1774 6.59386 16.0779 6.8442C16.725 7.54523 17.1064 8.44662 17.1064 9.54836C17.1064 13.4213 14.7677 14.2725 12.5282 14.523C12.8932 14.8401 13.2082 15.441 13.2082 16.3926C13.2082 17.7446 13.1918 18.8298 13.1918 19.1635C13.1918 19.4306 13.3744 19.748 13.8719 19.6478C17.8529 18.3121 20.7226 14.5396 20.7226 10.0826C20.739 4.50694 16.2438 0 10.7202 0Z" fill="#EEEEEE"/>
</g>
<defs>
<clipPath id="clip0_75_5874">
<rect width="20.0215" height="20" fill="white" transform="translate(0.701172)"/>
</clipPath>
</defs>
</svg>
