<svg width="24" height="24" viewBox="0 0 24 24" fill="none" xmlns="http://www.w3.org/2000/svg">
<g clip-path="url(#clip0_100_4760)">
<path d="M1 6H23C23.2652 6 23.5196 5.89464 23.7071 5.7071C23.8946 5.51957 24 5.26521 24 5C24 4.73478 23.8946 4.48043 23.7071 4.29289C23.5196 4.10536 23.2652 4 23 4H1C0.734784 4 0.48043 4.10536 0.292893 4.29289C0.105357 4.48043 0 4.73478 0 5C0 5.26521 0.105357 5.51957 0.292893 5.7071C0.48043 5.89464 0.734784 6 1 6V6Z" fill="#669BBC"/>
<path d="M23.0002 9H9.00024C8.73503 9 8.48067 9.10536 8.29314 9.29289C8.1056 9.48043 8.00024 9.73478 8.00024 10C8.00024 10.2652 8.1056 10.5196 8.29314 10.7071C8.48067 10.8946 8.73503 11 9.00024 11H23.0002C23.2655 11 23.5198 10.8946 23.7074 10.7071C23.8949 10.5196 24.0002 10.2652 24.0002 10C24.0002 9.73478 23.8949 9.48043 23.7074 9.29289C23.5198 9.10536 23.2655 9 23.0002 9Z" fill="#669BBC"/>
<path d="M23.0002 19H9.00024C8.73503 19 8.48067 19.1054 8.29314 19.2929C8.1056 19.4804 8.00024 19.7348 8.00024 20C8.00024 20.2652 8.1056 20.5196 8.29314 20.7071C8.48067 20.8947 8.73503 21 9.00024 21H23.0002C23.2655 21 23.5198 20.8947 23.7074 20.7071C23.8949 20.5196 24.0002 20.2652 24.0002 20C24.0002 19.7348 23.8949 19.4804 23.7074 19.2929C23.5198 19.1054 23.2655 19 23.0002 19Z" fill="#669BBC"/>
<path d="M23 14H1C0.734784 14 0.48043 14.1054 0.292893 14.2929C0.105357 14.4804 0 14.7348 0 15C0 15.2652 0.105357 15.5196 0.292893 15.7071C0.48043 15.8947 0.734784 16 1 16H23C23.2652 16 23.5196 15.8947 23.7071 15.7071C23.8946 15.5196 24 15.2652 24 15C24 14.7348 23.8946 14.4804 23.7071 14.2929C23.5196 14.1054 23.2652 14 23 14Z" fill="#669BBC"/>
</g>
<defs>
<clipPath id="clip0_100_4760">
<rect width="24" height="24" fill="white"/>
</clipPath>
</defs>
</svg>
