<svg width="21" height="20" viewBox="0 0 21 20" fill="none" xmlns="http://www.w3.org/2000/svg">
<g clip-path="url(#clip0_75_5875)">
<path d="M19.1722 0H2.11096C1.29368 0 0.632812 0.644531 0.632812 1.44141V18.5547C0.632812 19.3516 1.29368 20 2.11096 20H19.1722C19.9895 20 20.6543 19.3516 20.6543 18.5586V1.44141C20.6543 0.644531 19.9895 0 19.1722 0ZM6.57278 17.043H3.60084V7.49609H6.57278V17.043ZM5.08681 6.19531C4.13266 6.19531 3.3623 5.42578 3.3623 4.47656C3.3623 3.52734 4.13266 2.75781 5.08681 2.75781C6.03705 2.75781 6.80741 3.52734 6.80741 4.47656C6.80741 5.42188 6.03705 6.19531 5.08681 6.19531ZM17.6941 17.043H14.7261V12.4023C14.7261 11.2969 14.7065 9.87109 13.1814 9.87109C11.6368 9.87109 11.4022 11.0781 11.4022 12.3242V17.043H8.43806V7.49609H11.2849V8.80078H11.324C11.7189 8.05078 12.6887 7.25781 14.1317 7.25781C17.1388 7.25781 17.6941 9.23438 17.6941 11.8047V17.043Z" fill="#EEEEEE"/>
</g>
<defs>
<clipPath id="clip0_75_5875">
<rect width="20.0215" height="20" fill="white" transform="translate(0.632812)"/>
</clipPath>
</defs>
</svg>
