<svg width="41" height="41" viewBox="0 0 41 41" fill="none" xmlns="http://www.w3.org/2000/svg">
<path d="M39.3984 33.7663H37.1562V19.1344C37.1562 16.5623 35.7853 14.1407 33.5784 12.8179L23.969 7.05223C21.6307 5.64926 18.7255 5.64926 16.3872 7.05223L6.77781 12.8179C4.57406 14.1407 3.20312 16.5623 3.20312 19.1344V33.7663H0.960938C0.429219 33.7663 0 34.1955 0 34.7272C0 35.2589 0.429219 35.6882 0.960938 35.6882H39.3984C39.9302 35.6882 40.3594 35.2589 40.3594 34.7272C40.3594 34.1955 39.9302 33.7663 39.3984 33.7663ZM5.125 19.1344C5.125 17.2318 6.13719 15.4444 7.76758 14.4643L17.377 8.69863C19.1034 7.66082 21.2527 7.66082 22.9792 8.69863L32.5886 14.4643C34.219 15.4412 35.2312 17.2318 35.2312 19.1344V33.7663H5.125V19.1344Z" fill="white" fill-opacity="0.12"/>
<path d="M24.6641 21.9146H22.1016V19.3521C22.1016 18.8203 21.6723 18.3911 21.1406 18.3911H19.2188C18.687 18.3911 18.2578 18.8203 18.2578 19.3521V21.9146H15.6953C15.1636 21.9146 14.7344 22.3438 14.7344 22.8755V24.7974C14.7344 25.3291 15.1636 25.7583 15.6953 25.7583H18.2578V28.3208C18.2578 28.8525 18.687 29.2817 19.2188 29.2817H21.1406C21.6723 29.2817 22.1016 28.8525 22.1016 28.3208V25.7583H24.6641C25.1958 25.7583 25.625 25.3291 25.625 24.7974V22.8755C25.625 22.3438 25.1958 21.9146 24.6641 21.9146Z" fill="white" fill-opacity="0.12"/>
</svg>
