<svg width="40" height="40" viewBox="0 0 40 40" fill="none" xmlns="http://www.w3.org/2000/svg">
<path d="M11.5063 37.9908C11.4094 37.9908 11.3094 37.9751 11.2157 37.9439C6.38755 36.3658 2.4688 29.9283 1.9438 26.947C1.85318 26.4376 2.1938 25.9501 2.70318 25.8595L6.86255 25.1251C7.37505 25.0376 7.85943 25.3751 7.95005 25.8845C8.04068 26.3939 7.70005 26.8814 7.19068 26.972L4.03755 27.5283C4.96568 30.2189 7.9813 34.5939 11.3251 35.9845C12.3001 35.197 14.7251 33.3876 16.7938 33.0251C17.8813 32.8345 18.8969 32.6783 19.8782 32.5283C21.2188 32.322 22.4813 32.1283 23.6219 31.8845C24.1282 31.7751 24.6251 32.1001 24.7344 32.6064C24.8438 33.1126 24.5188 33.6095 24.0126 33.7189C22.8188 33.9751 21.5282 34.172 20.1626 34.3814C19.1907 34.5314 18.1876 34.6845 17.1188 34.872C15.3876 35.1783 12.9282 37.0595 12.1251 37.7595C11.9501 37.9095 11.7282 37.9908 11.5063 37.9908Z" fill="white" fill-opacity="0.12"/>
<path d="M33.1907 25.8281C33.0688 25.8281 32.9438 25.8031 32.825 25.7531C32.3469 25.5531 32.125 25.0031 32.325 24.525C33.2625 22.3031 33.6407 20.1812 33.975 18.3062C34.3532 16.1812 34.6907 14.2875 35.8157 13.1187C34.8625 12.3344 33.1313 11.2156 31.2063 11.4656C29.1594 11.7312 27.2969 13.4781 25.6688 16.6594C25.4344 17.1187 24.8688 17.3031 24.4063 17.0656C23.9438 16.8312 23.7625 16.2656 24 15.8031C25.9282 12.0312 28.2782 9.94685 30.9782 9.6031C34.8563 9.10935 37.8594 12.4406 37.9844 12.5812C38.1813 12.8031 38.2625 13.1031 38.2 13.3937C38.1407 13.6844 37.9469 13.9281 37.6782 14.0531C36.5938 14.5594 36.2782 16.0469 35.8188 18.6312C35.4844 20.5031 35.0719 22.8344 34.05 25.25C33.9032 25.6125 33.5563 25.8281 33.1907 25.8281Z" fill="white" fill-opacity="0.12"/>
<path d="M14.4469 28.55C14.2844 28.55 14.1219 28.5093 13.9719 28.4187C12.7781 27.7156 11.6563 26.9468 10.6438 26.1312C10.2406 25.8062 10.175 25.2156 10.5 24.8125C10.825 24.4093 11.4125 24.3437 11.8188 24.6687C12.7625 25.425 13.8094 26.1437 14.925 26.8031C15.3719 27.0656 15.5188 27.6406 15.2563 28.0875C15.0813 28.3843 14.7688 28.55 14.4469 28.55Z" fill="white" fill-opacity="0.12"/>
<path d="M7.34377 22.3377C7.05627 22.3377 6.77502 22.2064 6.59064 21.9595C1.68752 15.347 2.84064 8.76578 2.89064 8.48766C2.93752 8.23766 3.08439 8.01578 3.29689 7.87516C3.50939 7.73453 3.76877 7.68766 4.01877 7.74391C4.18127 7.78141 8.02814 8.65328 12.7688 10.3064C19.1875 12.5439 23.9031 15.0314 26.7906 17.7002C27.1719 18.0502 27.1938 18.6439 26.8438 19.0252C26.4938 19.4064 25.9 19.4283 25.5188 19.0783C20.0313 14.0095 8.20002 10.7283 4.64064 9.82516C4.54377 11.7845 4.75939 16.3377 8.09689 20.8408C8.40627 21.2564 8.31877 21.8439 7.90314 22.1533C7.73439 22.2783 7.54064 22.3377 7.34377 22.3377Z" fill="white" fill-opacity="0.12"/>
<path d="M23.0344 12.0533C22.8594 12.0533 22.6813 12.0033 22.525 11.9002C19.1282 9.69393 13.7157 7.35018 11.6063 6.46893C11.5688 6.61268 11.5282 6.78456 11.4844 6.99081C11.375 7.49706 10.875 7.81893 10.3688 7.70956C9.86254 7.60018 9.54067 7.10018 9.65317 6.59393C9.98442 5.05956 10.2407 4.40331 10.9469 4.30956C11.1063 4.28768 11.2688 4.30643 11.4219 4.36893C11.7344 4.49393 19.1219 7.45331 23.55 10.3346C23.9844 10.6158 24.1063 11.1971 23.825 11.6314C23.6438 11.9033 23.3438 12.0533 23.0344 12.0533Z" fill="white" fill-opacity="0.12"/>
<path d="M38.7312 28.4719C37.4562 27.1969 35.3844 27.1969 34.1094 28.4719L33.4344 29.1719L32.7594 28.4969C31.4844 27.2219 29.4125 27.2219 28.1375 28.4969C27.1375 29.4969 26.9219 30.9937 27.4937 32.2062C27.65 32.5375 27.8625 32.8469 28.1375 33.1188L32.9906 37.9719C33.2344 38.2156 33.6312 38.2156 33.875 37.9719L38.7281 33.0969C38.9937 32.8313 39.2031 32.5312 39.3594 32.2094C39.95 30.9875 39.7406 29.4813 38.7312 28.4719Z" fill="white" fill-opacity="0.12"/>
</svg>
