<svg width="28" height="29" viewBox="0 0 28 29" fill="none" xmlns="http://www.w3.org/2000/svg">
<g clip-path="url(#clip0_75_4857)">
<path d="M14.0618 0.955078C6.48915 0.955078 0.349854 7.13732 0.349854 14.7629C0.349854 18.5762 1.88495 22.0282 4.36594 24.5266L1.75425 27.1565C1.23577 27.6786 1.60321 28.5707 2.33594 28.5707H14.0618C21.6344 28.5707 27.7737 22.3885 27.7737 14.7629C27.7737 7.13732 21.6344 0.955078 14.0618 0.955078Z" fill="#FF4500"/>
<path d="M21.8346 17.518C23.603 17.518 25.0366 16.0744 25.0366 14.2937C25.0366 12.5129 23.603 11.0693 21.8346 11.0693C20.0663 11.0693 18.6327 12.5129 18.6327 14.2937C18.6327 16.0744 20.0663 17.518 21.8346 17.518Z" fill="url(#paint0_radial_75_4857)"/>
<path d="M6.28886 17.518C8.05725 17.518 9.49081 16.0744 9.49081 14.2937C9.49081 12.5129 8.05725 11.0693 6.28886 11.0693C4.52047 11.0693 3.08691 12.5129 3.08691 14.2937C3.08691 16.0744 4.52047 17.518 6.28886 17.518Z" fill="url(#paint1_radial_75_4857)"/>
<path d="M14.0693 23.968C19.1177 23.968 23.2102 20.877 23.2102 17.0641C23.2102 13.2511 19.1177 10.1602 14.0693 10.1602C9.02087 10.1602 4.92834 13.2511 4.92834 17.0641C4.92834 20.877 9.02087 23.968 14.0693 23.968Z" fill="url(#paint2_radial_75_4857)"/>
<path d="M11.3665 16.393C11.3129 17.5623 10.5416 17.9873 9.645 17.9873C8.74837 17.9873 8.06278 17.3886 8.11634 16.2193C8.1699 15.0499 8.9412 14.2754 9.83783 14.2754C10.7345 14.2754 11.4201 15.2236 11.3665 16.393Z" fill="#842123"/>
<path d="M20.0221 16.2183C20.0757 17.3877 19.3912 17.9863 18.4935 17.9863C17.5958 17.9863 16.8245 17.5624 16.772 16.392C16.7184 15.2226 17.4029 14.2744 18.3006 14.2744C19.1983 14.2744 19.9696 15.0479 20.0221 16.2183Z" fill="#842123"/>
<path d="M16.7721 16.4944C16.8224 17.5894 17.5434 17.9863 18.3832 17.9863C19.2231 17.9863 19.8637 17.392 19.8133 16.297C19.763 15.2021 19.042 14.4858 18.2022 14.4858C17.3623 14.4858 16.7217 15.3995 16.7721 16.4944Z" fill="url(#paint3_radial_75_4857)"/>
<path d="M11.3676 16.4944C11.3173 17.5894 10.5963 17.9863 9.75649 17.9863C8.91664 17.9863 8.27604 17.392 8.32638 16.297C8.37673 15.2021 9.09768 14.4858 9.93753 14.4858C10.7774 14.4858 11.418 15.3995 11.3676 16.4944Z" fill="url(#paint4_radial_75_4857)"/>
<path d="M14.0692 18.7671C12.9358 18.7671 11.8496 18.8221 10.8448 18.9224C10.6734 18.9397 10.5641 19.1155 10.6305 19.273C11.1929 20.6009 12.5202 21.5341 14.0692 21.5341C15.6182 21.5341 16.9444 20.6009 17.5079 19.273C17.5743 19.1155 17.4661 18.9397 17.2936 18.9224C16.2888 18.8221 15.2026 18.7671 14.0692 18.7671Z" fill="#BBCFDA"/>
<path d="M14.0692 19.0205C12.9391 19.0205 11.856 19.0766 10.8544 19.1791C10.683 19.1963 10.5748 19.3754 10.6413 19.5351C11.2026 20.8846 12.5256 21.8317 14.0682 21.8317C15.6107 21.8317 16.9348 20.8835 17.4961 19.5351C17.5626 19.3754 17.4544 19.1963 17.283 19.1791C16.2813 19.0766 15.1983 19.0205 14.0682 19.0205H14.0692Z" fill="white"/>
<path d="M14.0692 18.8892C12.9573 18.8892 11.8914 18.9442 10.9048 19.0445C10.7366 19.0618 10.6295 19.2376 10.6948 19.3951C11.2465 20.723 12.5491 21.6561 14.0692 21.6561C15.5893 21.6561 16.8909 20.723 17.4437 19.3951C17.509 19.2376 17.4019 19.0618 17.2337 19.0445C16.2481 18.9442 15.1823 18.8892 14.0692 18.8892Z" fill="url(#paint5_radial_75_4857)"/>
<path d="M19.0763 9.22139C20.3293 9.22139 21.3452 8.19846 21.3452 6.93662C21.3452 5.67478 20.3293 4.65186 19.0763 4.65186C17.8232 4.65186 16.8074 5.67478 16.8074 6.93662C16.8074 8.19846 17.8232 9.22139 19.0763 9.22139Z" fill="url(#paint6_radial_75_4857)"/>
<path d="M14.0371 10.4514C13.765 10.4514 13.5454 10.3371 13.5454 10.1602C13.5454 8.11273 15.1994 6.44824 17.2316 6.44824C17.5037 6.44824 17.7233 6.67046 17.7233 6.94338C17.7233 7.2163 17.5026 7.43852 17.2316 7.43852C15.7415 7.43852 14.5288 8.65965 14.5288 10.1602C14.5288 10.3371 14.3081 10.4514 14.0371 10.4514Z" fill="url(#paint7_radial_75_4857)"/>
<path d="M10.7698 17.036C10.7698 17.46 10.322 17.6498 9.77034 17.6498C9.21865 17.6498 8.77087 17.46 8.77087 17.036C8.77087 16.6121 9.21865 16.269 9.77034 16.269C10.322 16.269 10.7698 16.6121 10.7698 17.036Z" fill="#FF6101"/>
<path d="M19.3687 17.036C19.3687 17.46 18.9209 17.6498 18.3692 17.6498C17.8175 17.6498 17.3698 17.46 17.3698 17.036C17.3698 16.6121 17.8175 16.269 18.3692 16.269C18.9209 16.269 19.3687 16.6121 19.3687 17.036Z" fill="#FF6101"/>
<path d="M10.4603 15.886C10.6567 15.886 10.8159 15.7112 10.8159 15.4955C10.8159 15.2798 10.6567 15.105 10.4603 15.105C10.2638 15.105 10.1046 15.2798 10.1046 15.4955C10.1046 15.7112 10.2638 15.886 10.4603 15.886Z" fill="#FFC49C"/>
<path d="M18.9134 15.886C19.1098 15.886 19.269 15.7112 19.269 15.4955C19.269 15.2798 19.1098 15.105 18.9134 15.105C18.717 15.105 18.5577 15.2798 18.5577 15.4955C18.5577 15.7112 18.717 15.886 18.9134 15.886Z" fill="#FFC49C"/>
</g>
<defs>
<radialGradient id="paint0_radial_75_4857" cx="0" cy="0" r="1" gradientUnits="userSpaceOnUse" gradientTransform="translate(21.883 12.5577) scale(6.41691 5.63689)">
<stop stop-color="#FEFFFF"/>
<stop offset="0.4" stop-color="#FEFFFF"/>
<stop offset="0.51" stop-color="#F9FCFC"/>
<stop offset="0.62" stop-color="#EDF3F5"/>
<stop offset="0.7" stop-color="#DEE9EC"/>
<stop offset="0.72" stop-color="#D8E4E8"/>
<stop offset="0.76" stop-color="#CCD8DF"/>
<stop offset="0.8" stop-color="#C8D5DD"/>
<stop offset="0.83" stop-color="#CCD6DE"/>
<stop offset="0.85" stop-color="#D8DBE2"/>
<stop offset="0.88" stop-color="#EDE3E9"/>
<stop offset="0.9" stop-color="#FFEBEF"/>
</radialGradient>
<radialGradient id="paint1_radial_75_4857" cx="0" cy="0" r="1" gradientUnits="userSpaceOnUse" gradientTransform="translate(6.33726 12.5577) scale(6.41691 5.63689)">
<stop stop-color="#FEFFFF"/>
<stop offset="0.4" stop-color="#FEFFFF"/>
<stop offset="0.51" stop-color="#F9FCFC"/>
<stop offset="0.62" stop-color="#EDF3F5"/>
<stop offset="0.7" stop-color="#DEE9EC"/>
<stop offset="0.72" stop-color="#D8E4E8"/>
<stop offset="0.76" stop-color="#CCD8DF"/>
<stop offset="0.8" stop-color="#C8D5DD"/>
<stop offset="0.83" stop-color="#CCD6DE"/>
<stop offset="0.85" stop-color="#D8DBE2"/>
<stop offset="0.88" stop-color="#EDE3E9"/>
<stop offset="0.9" stop-color="#FFEBEF"/>
</radialGradient>
<radialGradient id="paint2_radial_75_4857" cx="0" cy="0" r="1" gradientUnits="userSpaceOnUse" gradientTransform="translate(14.3132 11.6538) scale(19.3559 13.6854)">
<stop stop-color="#FEFFFF"/>
<stop offset="0.4" stop-color="#FEFFFF"/>
<stop offset="0.51" stop-color="#F9FCFC"/>
<stop offset="0.62" stop-color="#EDF3F5"/>
<stop offset="0.7" stop-color="#DEE9EC"/>
<stop offset="0.72" stop-color="#D8E4E8"/>
<stop offset="0.76" stop-color="#CCD8DF"/>
<stop offset="0.8" stop-color="#C8D5DD"/>
<stop offset="0.83" stop-color="#CCD6DE"/>
<stop offset="0.85" stop-color="#D8DBE2"/>
<stop offset="0.88" stop-color="#EDE3E9"/>
<stop offset="0.9" stop-color="#FFEBEF"/>
</radialGradient>
<radialGradient id="paint3_radial_75_4857" cx="0" cy="0" r="1" gradientUnits="userSpaceOnUse" gradientTransform="translate(18.0554 17.2411) rotate(180) scale(1.61719 2.39078)">
<stop stop-color="#FF6600"/>
<stop offset="0.5" stop-color="#FF4500"/>
<stop offset="0.7" stop-color="#FC4301"/>
<stop offset="0.82" stop-color="#F43F07"/>
<stop offset="0.92" stop-color="#E53812"/>
<stop offset="1" stop-color="#D4301F"/>
</radialGradient>
<radialGradient id="paint4_radial_75_4857" cx="0" cy="0" r="1" gradientUnits="userSpaceOnUse" gradientTransform="translate(10.0115 17.2411) scale(1.61719 2.39078)">
<stop stop-color="#FF6600"/>
<stop offset="0.5" stop-color="#FF4500"/>
<stop offset="0.7" stop-color="#FC4301"/>
<stop offset="0.82" stop-color="#F43F07"/>
<stop offset="0.92" stop-color="#E53812"/>
<stop offset="1" stop-color="#D4301F"/>
</radialGradient>
<radialGradient id="paint5_radial_75_4857" cx="0" cy="0" r="1" gradientUnits="userSpaceOnUse" gradientTransform="translate(14.1012 21.9806) scale(5.70246 3.78751)">
<stop stop-color="#172E35"/>
<stop offset="0.29" stop-color="#0E1C21"/>
<stop offset="0.73" stop-color="#030708"/>
<stop offset="1"/>
</radialGradient>
<radialGradient id="paint6_radial_75_4857" cx="0" cy="0" r="1" gradientUnits="userSpaceOnUse" gradientTransform="translate(19.1301 4.63417) scale(5.00564 5.04066)">
<stop stop-color="#FEFFFF"/>
<stop offset="0.4" stop-color="#FEFFFF"/>
<stop offset="0.51" stop-color="#F9FCFC"/>
<stop offset="0.62" stop-color="#EDF3F5"/>
<stop offset="0.7" stop-color="#DEE9EC"/>
<stop offset="0.72" stop-color="#D8E4E8"/>
<stop offset="0.76" stop-color="#CCD8DF"/>
<stop offset="0.8" stop-color="#C8D5DD"/>
<stop offset="0.83" stop-color="#CCD6DE"/>
<stop offset="0.85" stop-color="#D8DBE2"/>
<stop offset="0.88" stop-color="#EDE3E9"/>
<stop offset="0.9" stop-color="#FFEBEF"/>
</radialGradient>
<radialGradient id="paint7_radial_75_4857" cx="0" cy="0" r="1" gradientUnits="userSpaceOnUse" gradientTransform="translate(17.0441 10.1295) scale(4.10289 4.1316)">
<stop offset="0.48" stop-color="#7A9299"/>
<stop offset="0.67" stop-color="#172E35"/>
<stop offset="0.75"/>
<stop offset="0.82" stop-color="#172E35"/>
</radialGradient>
<clipPath id="clip0_75_4857">
<rect width="27.4238" height="27.6157" fill="white" transform="translate(0.349854 0.955078)"/>
</clipPath>
</defs>
</svg>
